<svg width="150" height="18" viewBox="0 0 150 18" fill="none" xmlns="http://www.w3.org/2000/svg">
<g clip-path="url(#clip0_42_293)">
<path d="M16.9693 0.716553C16.9567 1.16386 16.9399 1.61116 16.9358 2.05847C16.9211 3.68616 16.6131 4.01542 14.9895 4.01956C11.7109 4.03199 8.43017 4.01956 5.14316 4.01956C3.07961 4.01956 3.38338 3.75242 3.35405 5.75701C3.35405 6.27058 3.35405 6.79243 3.35405 7.44061H16.9714V17.4905H1.25698C0.923611 17.4905 0.603893 17.3596 0.368163 17.1265C0.132432 16.8935 0 16.5775 0 16.2479V14.1771C0.521648 14.1771 1.04749 14.1647 1.56704 14.1647C5.25838 14.1647 8.95182 14.1647 12.6432 14.1419C12.9658 14.1419 13.5168 14.1543 13.5649 13.97C13.6131 13.7857 13.6089 11.7894 13.6089 10.7333C12.8317 10.7333 12.2116 10.7333 11.5915 10.7333L0 10.6566V0.716553H16.9693Z" fill="#FF0000"/>
<path d="M73.324 17.4905V0.716553H90.0837V10.7436H84.1738L90.0837 17.4905H87.4818C86.8755 17.4633 86.2879 17.2752 85.7807 16.9458C85.309 16.5807 84.8747 16.1708 84.4839 15.7219C83.118 14.2951 81.861 12.7689 80.537 11.3028C80.3275 11.0625 80.0027 10.7747 79.7157 10.756C78.7185 10.6877 77.7129 10.7291 76.611 10.7291C76.611 12.5929 76.6361 14.3013 76.5942 16.0181V16.2956C76.585 16.6153 76.4501 16.9189 76.2181 17.142C75.9862 17.3651 75.6755 17.4901 75.3519 17.4905H73.324ZM76.6759 7.40126H86.7569V4.10033H76.6759V7.40126Z" fill="#FF0000"/>
<path d="M41.4805 0.716553C41.447 3.57295 41.4135 6.42796 41.3799 9.2816C41.3799 9.72269 41.3799 10.1617 41.3799 10.6629H24.5112V0.716553H41.4805ZM38.757 4.11275H27.8904V7.3847H38.757V4.11275Z" fill="#FF0000"/>
<path d="M141.798 17.4905C141.386 17.4955 140.983 17.3679 140.65 17.1271C140.317 16.8862 140.072 16.545 139.953 16.1548C139.918 16.0354 139.898 15.9123 139.894 15.7882C139.831 12.3092 139.862 8.82601 139.862 5.34491V4.04855H133.031V0.716553H150V4.02992H143.152C143.152 4.63253 143.152 5.06534 143.152 5.51472C143.131 9.50732 143.109 13.4992 143.087 17.4905H141.798Z" fill="#FF0000"/>
<path d="M124.379 17.4905C123.947 17.492 123.525 17.3615 123.171 17.1168C122.817 16.8721 122.548 16.5253 122.401 16.1237C122.292 15.8456 122.229 15.5519 122.214 15.2539C122.133 10.4102 122.152 5.56235 122.137 0.716553H125.489V17.4905H124.379Z" fill="#FF0000"/>
<path d="M24.5112 14.2393H41.4805V16.248C41.4805 16.5775 41.3481 16.8936 41.1123 17.1266C40.8766 17.3596 40.5569 17.4905 40.2235 17.4905H24.5112V14.2393Z" fill="#FF0000"/>
<path d="M65.9916 0.635742C65.9581 3.49214 65.9246 6.34785 65.8911 9.20286C65.8911 9.64188 65.8911 10.0809 65.8911 10.5841H49.0223V0.644026L65.9916 0.635742ZM63.2682 4.02987H52.4015V7.30389H63.2682V4.02987Z" fill="#FF0000"/>
<path d="M49.0223 14.2393H65.9916V16.248C65.9916 16.5775 65.8592 16.8936 65.6235 17.1266C65.3877 17.3596 65.068 17.4905 64.7346 17.4905H49.0223V14.2393Z" fill="#FF0000"/>
<path d="M114.595 0.716553H97.6257V17.4905H112.831C113.299 17.4905 113.748 17.3068 114.078 16.9798C114.409 16.6528 114.595 16.2092 114.595 15.7468V10.9507L112.961 9.10351L114.595 7.34328V0.716553ZM111.243 14.1771H100.978V10.6566H111.243V14.1771ZM111.243 7.55037H100.978V4.02992H111.243V7.55037Z" fill="#FF0000"/>
</g>
<defs>
<clipPath id="clip0_42_293">
<rect width="150" height="16.9811" fill="white" transform="translate(0 0.509521)"/>
</clipPath>
</defs>
</svg>
